#!OML:ASF I:\golf\golf\golf 2\Subject 1\2002-09-07\Subject1.ASF
:FULLY-SPECIFIED
:DEGREES
199
root -0.749273 17.8783 -6.11748 17.7761 11.6001 -4.38586
lowerback 11.7127 1.47574 -0.727714
upperback 7.28048 1.95976 6.32013
thorax 0.829929 0.846063 6.84326
lowerneck -17.3943 -1.1563 -1.1013
upperneck 34.9609 1.28114 -6.57883
head 15.2049 -0.458433 -2.32659
rclavicle 1.43125e-014 8.0309e-014
rhumerus -4.59278 17.87 -82.0702
rradius 34.0139
rwrist -15.4101
rhand -31.1721 15.997
rfingers 7.12502
rthumb -4.44931 -13.9363
lclavicle 1.43125e-014 8.0309e-014
lhumerus -31.6278 -51.1634 104.029
lradius 48.5392
lwrist 6.59016
lhand -19.0855 14.9695
lfingers 7.12502
lthumb 7.22263 44.8262
rfemur -42.9145 -10.7651 28.5115
rtibia 28.8253
rfoot -1.19293 -10.8964
rtoes 2.1758
lfemur -33.5993 4.65002 -10.6581
ltibia 55.2337
lfoot -6.27187 -11.987
ltoes -16.5954
200
root -0.783191 17.8589 -6.09584 18.0033 11.8618 -4.41132
lowerback 12.2417 1.55463 -0.513372
upperback 7.45656 2.09159 6.34303
thorax 0.719934 0.917424 6.72236
lowerneck -17.568 -1.26381 -0.922011
upperneck 34.6725 1.0995 -6.71709
head 15.1 -0.527977 -2.43882
rclavicle -2.38542e-015 2.54444e-014
rhumerus -3.82832 18.0356 -81.7839
rradius 34.1317
rwrist -15.0995
rhand -31.476 16.1309
rfingers 7.12502
rthumb -4.74277 -13.7961
lclavicle -2.38542e-015 2.54444e-014
lhumerus -31.1819 -51.5166 103.458
lradius 49.189
lwrist 5.8038
lhand -19.8619 15.8804
lfingers 7.12502
lthumb 6.47315 45.7615
rfemur -43.5006 -10.8884 28.7931
rtibia 29.4589
rfoot -1.3937 -11.046
rtoes 3.09253
lfemur -35.2427 4.79524 -10.4104
ltibia 56.9548
lfoot -6.26363 -12.0864
ltoes -17.6191
201
root -0.821957 17.8334 -6.07269 18.0974 11.9372 -4.66741
lowerback 12.7531 1.7079 -0.315481
upperback 7.75393 2.31601 6.45643
thorax 0.735992 1.02854 6.6992
lowerneck -17.85 -1.33555 -0.802855
upperneck 34.3644 0.974162 -6.80581
head 15.014 -0.577439 -2.5106
rclavicle -1.19271e-014 -1.98785e-014
rhumerus -2.82787 18.0278 -81.4402
rradius 34.1239
rwrist -14.6134
rhand -31.4547 16.1687
rfingers 7.12502
rthumb -4.72224 -13.7587
lclavicle -1.19271e-014 -1.98785e-014
lhumerus -30.4286 -51.7141 102.612
lradius 49.9631
lwrist 5.06079
lhand -20.1696 17.1576
lfingers 7.12502
lthumb 6.1761 47.0475
rfemur -43.9784 -10.7195 29.2468
rtibia 30.0925
rfoot -1.16863 -11.0542
rtoes 1.19307
lfemur -36.7074 5.20125 -9.97545
ltibia 58.5275
lfoot -6.74439 -12.1257
ltoes -17.7729
202
root -0.860019 17.8088 -6.04984 18.0589 12.0747 -4.95669
lowerback 13.4499 1.8386 -0.110587
upperback 8.08437 2.51883 6.63658
thorax 0.691213 1.12833 6.74223
lowerneck -18.1718 -1.40803 -0.893876
upperneck 34.0375 0.877501 -6.77444
head 14.9308 -0.626527 -2.4898
rclavicle 2.3059e-014 -1.66979e-014
rhumerus -1.7553 18.3281 -80.9212
rradius 34.1082
rwrist -14.2083
rhand -31.5416 16.2339
rfingers 7.12502
rthumb -4.80611 -13.6916
lclavicle 2.3059e-014 -1.66979e-014
lhumerus -29.6513 -51.7812 101.76
lradius 50.8686
lwrist 4.36493
lhand -22.7224 15.4465
lfingers 7.12502
lthumb 3.71117 45.3939
rfemur -44.3259 -10.5769 29.7124
rtibia 30.7201
rfoot -0.815112 -11.0573
rtoes -0.657563
lfemur -38.0075 5.5546 -9.5034
ltibia 59.8987
lfoot -7.38438 -12.2448
ltoes -17.7579
203
root -0.893229 17.789 -6.02905 18.0637 12.264 -5.04066
lowerback 14.4377 1.97085 -0.00396117
upperback 8.20795 2.73488 6.7624
thorax 0.27077 1.24147 6.76594
lowerneck -18.3471 -1.5315 -1.02743
upperneck 33.8559 0.71014 -6.69367
head 14.8787 -0.702391 -2.45684
rclavicle 8.90555e-014 9.30312e-014
rhumerus -1.09751 18.8003 -80.4287
rradius 34.2578
rwrist -14.3766
rhand -31.8471 16.4368
rfingers 7.12502
rthumb -5.10106 -13.4818
lclavicle 8.90555e-014 9.30312e-014
lhumerus -29.3467 -51.8396 101.301
lradius 51.7234
lwrist 3.48622
lhand -22.7554 16.868
lfingers 7.12502
lthumb 3.67931 46.816
rfemur -44.688 -10.6715 30.0227
rtibia 31.3187
rfoot -0.705229 -11.0605
rtoes -1.12905
lfemur -39.2712 5.74716 -9.27395
ltibia 61.0144
lfoot -7.99602 -12.2703
ltoes -17.1616
204
root -0.922719 17.7701 -6.00964 18.1393 12.3082 -5.05387
lowerback 15.3385 2.13279 -0.010394
upperback 8.33632 2.97313 6.86262
thorax -0.101629 1.36121 6.82248
lowerneck -18.4802 -1.65577 -1.19498
upperneck 33.6619 0.545731 -6.59604
head 14.8123 -0.778351 -2.40937
rclavicle -7.71285e-014 -1.43125e-014
rhumerus -0.393888 19.1659 -79.9489
rradius 34.3577
rwrist -14.6543
rhand -32.1768 16.8232
rfingers 7.12502
rthumb -5.41941 -13.0875
lclavicle -7.71285e-014 -1.43125e-014
lhumerus -29.0587 -51.8679 100.861
lradius 52.5431
lwrist 2.56477
lhand -23.3137 16.9034
lfingers 7.12502
lthumb 3.14018 46.86
rfemur -45.0983 -10.7394 30.2856
rtibia 31.8908
rfoot -0.851827 -11.1287
rtoes -1.27371
lfemur -40.5007 6.03578 -9.18329
ltibia 61.8658
lfoot -8.46479 -12.0934
ltoes -15.9472
205
root -0.950131 17.7546 -5.99025 18.2051 12.2921 -5.03816
lowerback 15.9811 2.28142 -0.0535556
upperback 8.68843 3.1678 6.96144
thorax -0.0926956 1.44865 6.91621
lowerneck -18.7216 -1.74524 -1.33272
upperneck 33.2508 0.454248 -6.61716
head 14.6758 -0.835971 -2.39746
rclavicle 3.97569e-015 -4.6118e-014
rhumerus 0.728149 19.4699 -79.3171
rradius 34.3808
rwrist -14.6074
rhand -32.4469 17.1269
rfingers 7.12502
rthumb -5.68022 -12.777
lclavicle 3.97569e-015 -4.6118e-014
lhumerus -28.291 -51.9534 100.075
lradius 53.4129
lwrist 1.91261
lhand -20.1408 18.6762
lfingers 7.12502
lthumb 6.20387 48.5653
rfemur -45.4645 -10.7164 30.4592
rtibia 32.4639
rfoot -1.35839 -11.3872
rtoes 0.28205
lfemur -41.6411 6.3935 -9.17554
ltibia 62.4617
lfoot -8.75287 -11.7666
ltoes -14.796
